<svg width="24" height="24" viewBox="0 0 24 24" fill="none" xmlns="http://www.w3.org/2000/svg">
<rect width="24" height="24" rx="12" fill="#212121"/>
<path d="M16.3167 11.679L19.4554 6.03293C19.5991 5.77363 19.3746 5.46247 19.0827 5.52335L9.98097 7.3813L6.04527 8.18401C5.77136 8.24038 5.67258 8.58086 5.87464 8.77702L12.4214 15.0814C12.6459 15.2979 12.4933 15.6812 12.1812 15.6812H8.67655C8.48572 15.6812 8.3308 15.5256 8.3308 15.334V12.5155C8.3308 12.157 7.85708 12.033 7.68196 12.3464L4.54552 17.9653C4.39959 18.2246 4.62635 18.5358 4.91597 18.4772L17.9512 15.8143C18.2251 15.7579 18.3238 15.4174 18.1218 15.2212L11.575 8.91682C11.3505 8.70036 11.5032 8.31705 11.8152 8.31705H15.3199C15.5107 8.31705 15.6656 8.47263 15.6656 8.66428V11.5076C15.6656 11.8661 16.1416 11.9901 16.3145 11.6767L16.3167 11.679Z" fill="white"/>
</svg>
