<svg width="24" height="24" viewBox="0 0 24 24" fill="none" xmlns="http://www.w3.org/2000/svg">
<rect width="24" height="24" rx="12" fill="#212121"/>
<path d="M20.2667 7.31445H4.05307C3.69632 7.31445 3.43314 7.64781 3.51502 7.99481L5.48202 16.2605C5.5405 16.51 5.76274 16.6855 6.02007 16.6855H17.7032C17.9546 16.6855 18.1749 16.5159 18.2373 16.2722L20.4928 7.60687C20.5299 7.45871 20.4188 7.3164 20.2667 7.3164V7.31445Z" fill="white"/>
<path d="M17.126 11.0828L17.3248 10.3186C17.3638 10.1704 17.2508 10.0261 17.0987 10.0261H15.6444C15.4924 10.0261 15.3793 9.88189 15.4183 9.73373L15.7009 8.64593C15.7399 8.49778 15.6269 8.35352 15.4748 8.35352H13.1511C13.038 8.35352 12.9405 8.43539 12.921 8.54846L12.4746 11.1919C12.4317 11.4454 12.073 11.4531 12.0165 11.2036L11.4199 8.53676C11.3965 8.42954 11.301 8.35352 11.1919 8.35352H9.48218C9.37301 8.35352 9.27749 8.42954 9.25409 8.53676L8.65756 11.2036C8.60103 11.4531 8.24232 11.4434 8.19944 11.1919L7.75301 8.54846C7.73352 8.43539 7.63604 8.35352 7.52298 8.35352H5.19922C5.04717 8.35352 4.9341 8.49778 4.97309 8.64593L6.74904 15.4729C6.77633 15.5762 6.86796 15.6484 6.97518 15.6484H9.26579C9.37496 15.6484 9.46853 15.5743 9.49388 15.4671L10.1099 12.8061C10.1664 12.5643 10.5095 12.5643 10.5641 12.8061L11.1802 15.4671C11.2055 15.5724 11.2991 15.6484 11.4082 15.6484H13.6989C13.8061 15.6484 13.8977 15.5762 13.925 15.4729L14.1862 14.469C14.2135 14.3656 14.3051 14.2935 14.4124 14.2935H16.0772C16.1844 14.2935 16.276 14.2214 16.3033 14.1181L16.5022 13.3539C16.5412 13.2057 16.4281 13.0615 16.276 13.0615H14.8549C14.7028 13.0615 14.5898 12.9172 14.6287 12.769L14.9777 11.4298C15.005 11.3264 15.0966 11.2543 15.2038 11.2543H16.8999C17.0071 11.2543 17.0987 11.1822 17.126 11.0789V11.0828Z" fill="#010101"/>
</svg>
